<?xml version="1.0" standalone="no"?>
<!DOCTYPE svg PUBLIC "-//W3C//DTD SVG 20010904//EN"
 "http://www.w3.org/TR/2001/REC-SVG-20010904/DTD/svg10.dtd">
<svg version="1.0" xmlns="http://www.w3.org/2000/svg"
 width="300.000000pt" height="283.000000pt" viewBox="0 0 300.000000 283.000000"
 preserveAspectRatio="xMidYMid meet">
<metadata>
Created by potrace 1.10, written by Peter Selinger 2001-2011
</metadata>
<g transform="translate(0.000000,283.000000) scale(0.100000,-0.100000)"
fill="#000000" stroke="none">
<path d="M2927 2804 c-172 -90 -518 -173 -717 -174 -200 0 -421 53 -641 156
l-76 36 -85 -46 c-109 -59 -216 -98 -348 -127 -134 -29 -374 -31 -520 -5 -118
21 -298 81 -409 135 -47 23 -89 37 -93 33 -35 -35 -35 -623 1 -882 63 -466
208 -864 413 -1135 206 -273 531 -551 843 -720 122 -66 157 -75 218 -59 99 26
314 130 457 222 224 143 493 410 616 610 265 432 385 940 401 1700 4 165 2
282 -3 282 -5 -1 -31 -12 -57 -26z m-1360 -48 c203 -102 494 -165 693 -151
101 8 298 43 419 76 40 11 76 17 79 14 30 -29 -18 -543 -84 -910 -22 -119 -23
-125 -35 -125 -34 0 -617 -244 -595 -248 21 -4 21 -56 0 -76 -8 -9 -24 -16
-34 -16 -24 0 -50 -10 -50 -20 0 -4 20 -5 45 -2 70 7 54 -12 -30 -37 -41 -13
-77 -26 -80 -31 -3 -5 31 -6 76 -3 l82 6 -6 -44 c-4 -24 -9 -111 -13 -192 l-7
-149 -36 9 c-99 22 -200 -2 -272 -65 l-36 -31 -33 34 c-60 62 -167 91 -260 71
-40 -9 -126 -61 -139 -84 -7 -12 -15 -9 -46 23 -56 55 -116 79 -200 80 -76 0
-144 -26 -187 -72 -12 -13 -26 -23 -32 -23 -20 0 -95 101 -184 245 -180 295
-291 634 -322 984 -11 120 -16 648 -7 657 3 3 54 -8 114 -25 107 -30 194 -44
348 -56 207 -16 510 53 691 159 32 19 62 35 66 35 4 1 38 -14 75 -33z m-1414
-19 l89 -43 0 -225 c1 -394 19 -579 83 -844 78 -327 269 -684 484 -909 79 -82
236 -219 347 -303 86 -66 247 -166 282 -178 57 -18 375 146 552 286 168 131
300 273 388 415 106 170 214 416 268 606 26 94 72 355 98 558 9 69 21 159 27
200 5 41 13 151 16 243 l6 169 76 34 c41 19 80 32 87 30 10 -4 12 -47 9 -183
-4 -167 -12 -336 -20 -393 -2 -14 -6 -59 -10 -100 -50 -589 -214 -1049 -499
-1406 -211 -264 -583 -530 -883 -633 l-93 -32 -52 22 c-107 45 -338 193 -488
313 -109 86 -384 367 -463 471 -183 244 -340 693 -392 1117 -23 189 -34 484
-25 643 5 77 9 150 10 163 0 12 3 22 8 22 4 0 47 -20 95 -43z m2493 -1104 c-3
-10 -10 -37 -16 -60 l-11 -42 -122 -40 c-67 -21 -180 -60 -251 -85 -71 -26
-131 -45 -132 -43 -2 2 -5 18 -6 36 -3 32 -3 32 107 77 61 25 155 63 210 84
55 21 125 49 155 63 67 31 73 32 66 10z m-36 -135 c0 -8 -56 -32 -128 -56 -70
-24 -176 -62 -235 -84 -133 -50 -169 -53 -173 -18 -4 28 11 58 23 47 4 -5 3
-11 -2 -15 -17 -12 -16 -32 2 -31 10 0 124 38 253 84 129 45 241 83 248 84 6
0 12 -5 12 -11z m-23 -45 c-9 -8 -180 -63 -184 -59 -2 2 34 17 79 34 80 30
118 39 105 25z m-13 -56 c-15 -32 -24 -36 -192 -90 -164 -54 -252 -70 -252
-48 0 5 -3 17 -7 27 -5 13 -3 16 9 11 15 -5 108 23 338 101 47 16 93 30 102
31 16 1 17 -1 2 -32z m-99 -223 c-41 -87 -90 -181 -107 -209 -45 -71 -151
-204 -159 -200 -3 3 -9 33 -12 67 -4 35 -9 79 -12 98 -16 119 -28 192 -40 242
-8 34 -9 60 -4 64 5 3 9 0 9 -6 0 -8 11 -9 33 -5 43 9 328 103 347 115 30 19
20 -11 -55 -166z m-365 91 c0 -19 -20 -29 -32 -17 -8 8 -7 16 2 26 14 17 30
12 30 -9z m-60 -5 c0 -14 -24 -23 -47 -17 -15 3 -14 6 7 15 32 14 40 14 40 2z
m68 -37 c-1 -10 1 -23 5 -29 9 -15 -19 -38 -38 -30 -22 8 -18 35 8 46 12 5 18
9 14 9 -5 1 -5 6 -2 11 10 16 17 12 13 -7z m11 -135 c-11 -21 -30 -23 -47 -6
-9 9 -8 16 4 29 22 24 58 5 43 -23z m-57 -60 l-22 -22 0 30 c0 39 10 49 29 29
14 -14 13 -17 -7 -37z m63 -8 c15 -16 15 -22 5 -35 -16 -19 -31 -19 -55 -1
-19 14 -19 15 -1 35 24 26 28 26 51 1z m-51 -55 c19 -14 18 -15 -8 -40 -16
-15 -29 -25 -31 -23 -5 6 7 78 14 78 3 0 15 -7 25 -15z m81 -33 c-2 -3 -11 1
-20 8 -12 10 -13 16 -3 27 10 13 13 11 20 -8 5 -12 6 -24 3 -27z m-22 -10 c16
-17 15 -20 -11 -45 l-29 -27 -18 20 c-18 20 -18 21 5 45 28 30 32 30 53 7z
m37 -83 c0 -32 -6 -35 -34 -14 -19 14 -19 15 -1 35 22 25 35 17 35 -21z
m-1106 17 c61 -18 116 -57 140 -96 l18 -31 40 41 c51 54 109 80 177 80 83 0
130 -19 187 -75 l52 -50 38 40 c54 56 104 78 184 79 82 0 144 -28 194 -89 40
-48 44 -66 20 -85 -13 -11 -16 -10 -21 8 -3 12 -9 19 -14 16 -5 -3 -6 -16 -3
-28 4 -17 -3 -31 -26 -55 -17 -17 -39 -31 -48 -31 -9 -1 -83 -1 -164 0 l-148
1 -1 -48 c0 -26 -3 -42 -6 -34 -4 11 -7 11 -14 0 -17 -28 -32 30 -18 69 5 12
5 22 1 22 -4 0 -7 25 -7 54 0 31 -6 61 -12 68 -11 10 -13 -2 -13 -57 l0 -70
-172 3 c-175 3 -218 0 -218 -19 0 -6 5 -7 10 -4 6 3 10 1 10 -4 0 -6 -6 -11
-12 -12 -10 0 -10 -2 0 -6 20 -8 15 -43 -8 -43 -17 0 -19 7 -19 70 0 70 -14
136 -33 155 -7 7 -8 -14 -4 -62 l6 -72 -104 0 c-101 0 -106 1 -136 29 -28 26
-30 32 -30 104 0 42 -3 76 -6 76 -25 0 -44 -24 -44 -55 0 -19 -4 -35 -10 -35
-5 0 -10 9 -10 20 0 11 -5 17 -12 15 -7 -3 -20 -1 -28 4 -12 8 -11 13 5 31 33
37 77 63 124 76 61 17 79 17 135 0z m997 4 c10 -6 19 -17 19 -26 0 -8 6 -14
13 -12 6 2 29 -8 50 -20 40 -25 49 -59 23 -81 -12 -10 -18 -7 -30 17 -16 31
-80 92 -96 92 -6 0 -10 9 -10 20 0 23 4 24 31 10z m-1164 -141 c2 -36 -1 -49
-10 -46 -13 4 -22 60 -13 83 11 29 21 13 23 -37z m251 -155 c25 -7 31 -51 10
-72 -9 -9 -8 -12 6 -12 9 0 15 -4 12 -9 -4 -5 -1 -11 6 -13 6 -2 8 -10 4 -16
-9 -16 -48 4 -102 52 -21 19 -50 44 -64 55 l-25 20 65 1 c36 0 75 -3 88 -6z
m457 -39 c0 -27 -3 -30 -27 -27 -17 2 -28 -1 -28 -8 0 -7 6 -10 13 -7 8 3 20
1 28 -4 10 -6 8 -9 -11 -10 -24 -1 12 -11 99 -26 31 -5 33 -4 28 16 -4 17 -1
21 21 22 17 1 21 3 10 6 -10 2 -18 8 -18 11 0 4 -3 17 -6 30 -6 22 -6 22 120
22 80 0 126 -4 126 -10 0 -6 -8 -14 -17 -17 -10 -4 -27 -15 -37 -25 -11 -10
-30 -18 -43 -18 -13 0 -22 -5 -21 -12 2 -6 -10 -18 -26 -27 -16 -9 -38 -24
-48 -33 -10 -10 -27 -18 -38 -18 -11 0 -20 -4 -20 -10 0 -21 -240 -136 -264
-126 -6 2 -3 5 6 5 9 1 20 6 23 11 4 7 -2 9 -19 4 -30 -7 -76 2 -76 15 0 5 28
7 63 5 l62 -3 -50 9 c-27 5 -61 7 -75 5 -15 -3 -33 1 -45 10 -19 15 -15 16 55
11 45 -3 69 -2 60 3 -27 16 -95 22 -122 12 -22 -8 -31 -6 -50 9 l-23 20 74 -7
c58 -5 72 -3 66 6 -5 9 -30 12 -79 10 -56 -3 -78 1 -103 16 -18 10 -30 22 -27
27 3 4 31 8 62 9 55 1 56 1 22 11 -42 12 -62 27 -54 40 4 7 9 7 13 0 3 -6 20
-13 36 -16 17 -3 24 -3 16 0 -11 5 -11 8 0 16 11 7 11 11 2 15 -7 2 -13 18
-13 34 l0 29 168 -2 167 -3 0 -30z"/>
<path d="M1430 2480 c0 -13 -9 -22 -27 -26 -16 -4 -49 -18 -76 -32 -36 -20
-50 -23 -59 -14 -18 18 -82 -46 -66 -66 9 -10 9 -19 -2 -35 -7 -12 -21 -47
-30 -77 -12 -41 -21 -54 -33 -52 -26 5 -24 -88 2 -95 11 -3 23 -21 31 -46 6
-23 21 -57 32 -75 15 -24 17 -36 9 -46 -8 -9 -2 -21 25 -47 27 -26 37 -31 43
-20 7 11 19 9 62 -13 29 -14 61 -26 72 -26 10 0 21 -9 24 -20 4 -17 14 -20 54
-20 42 0 49 3 49 20 0 14 7 20 24 20 13 0 49 13 79 29 40 21 58 26 66 18 17
-17 79 47 63 66 -9 10 -8 19 5 36 9 13 24 49 33 80 10 32 24 56 31 56 9 0 15
15 17 43 3 36 0 44 -16 49 -12 3 -24 20 -32 46 -7 23 -21 55 -33 71 -16 23
-18 32 -9 47 9 15 5 23 -25 49 -30 26 -38 29 -44 17 -7 -12 -15 -11 -55 9 -26
13 -62 26 -80 30 -24 4 -34 12 -34 25 0 16 -8 19 -50 19 -43 0 -50 -3 -50 -20z
m159 -79 c148 -56 221 -203 177 -355 -21 -70 -89 -145 -163 -178 -186 -82
-403 62 -403 267 0 112 57 202 162 254 73 37 151 41 227 12z"/>
<path d="M1430 2370 c-11 -7 -12 -12 -3 -18 18 -12 21 -421 3 -432 -11 -7 -7
-12 12 -21 32 -14 68 -5 50 13 -15 15 -17 434 -2 443 6 3 10 10 10 16 0 12
-51 11 -70 -1z"/>
<path d="M1514 2368 c-4 -6 0 -16 9 -23 15 -11 17 -39 17 -230 0 -194 2 -216
16 -211 9 3 18 6 20 6 2 0 4 92 4 205 0 113 3 205 6 205 3 0 13 -4 23 -10 16
-8 18 -25 15 -195 -3 -143 0 -185 9 -182 7 2 14 32 17 78 l5 74 23 -38 c23
-36 42 -41 42 -12 0 8 -14 35 -32 59 l-31 45 26 40 c27 41 36 81 17 81 -5 0
-16 -13 -25 -30 -9 -16 -18 -30 -21 -30 -4 0 -4 25 -2 55 4 52 3 57 -23 76
-41 29 -107 50 -115 37z"/>
<path d="M1363 2344 c-3 -8 -3 -65 -1 -125 3 -60 2 -109 -2 -109 -8 0 -13 22
-39 149 -10 51 -24 48 -52 -11 -32 -68 -33 -165 -2 -224 50 -95 80 -75 32 21
-28 57 -31 72 -26 117 4 28 10 55 15 60 7 7 46 -140 78 -289 2 -13 10 -23 17
-23 9 0 12 54 12 225 0 176 -3 225 -13 225 -7 0 -15 -7 -19 -16z"/>
<path d="M2310 2434 c-105 -19 -178 -52 -226 -102 -94 -97 -82 -256 26 -361
37 -36 40 -42 24 -47 -60 -22 -114 -90 -114 -145 0 -12 18 -40 40 -62 25 -24
37 -44 32 -49 -19 -19 -137 -28 -467 -34 -432 -9 -604 6 -669 57 l-27 22 24
26 c32 34 47 64 47 93 0 36 -34 83 -75 102 l-38 18 42 37 c108 95 90 232 -45
340 -63 50 -127 76 -228 91 -137 21 -268 -9 -321 -72 -30 -35 -31 -57 -6 -106
10 -20 21 -54 25 -76 14 -76 84 -108 155 -71 40 20 56 76 29 103 -20 20 21 26
102 14 227 -33 333 -131 246 -225 -22 -24 -28 -26 -53 -16 -15 6 -78 13 -140
16 -179 9 -342 -26 -361 -78 -5 -12 -4 -43 1 -68 5 -25 11 -56 13 -68 7 -36
41 -48 134 -46 65 0 102 7 156 27 39 14 82 26 96 26 41 0 124 -29 143 -50 17
-19 17 -20 -7 -31 -29 -13 -58 -58 -58 -91 0 -37 36 -85 79 -107 54 -28 164
-57 301 -78 160 -25 593 -25 727 0 121 22 201 53 241 93 42 42 42 77 1 134
-39 53 -32 68 37 92 60 21 118 23 147 4 71 -46 233 -71 271 -43 17 13 30 56
43 144 l6 43 -54 25 c-30 13 -88 29 -129 36 -72 11 -229 7 -278 -7 -19 -5 -31
2 -66 39 -82 85 -68 152 39 196 67 28 232 41 295 24 34 -9 35 -11 32 -55 -4
-57 20 -78 89 -78 63 0 76 17 83 110 3 41 8 92 12 113 6 34 3 41 -29 70 -19
18 -59 41 -88 51 -53 17 -209 29 -259 20z m194 -29 c83 -15 150 -49 161 -84 3
-11 1 -37 -4 -58 -6 -21 -11 -50 -11 -66 0 -27 0 -27 -30 -12 -100 52 -345 59
-455 14 -44 -18 -66 -34 -84 -61 -13 -21 -28 -35 -32 -32 -5 3 -9 29 -9 57 1
130 97 218 268 247 70 12 109 11 196 -5z m-1789 -20 c174 -46 292 -185 255
-302 -18 -55 -26 -59 -33 -15 -8 49 -43 87 -110 117 -133 61 -301 70 -400 21
-43 -21 -49 -22 -53 -7 -3 9 -14 35 -25 59 -14 31 -16 48 -10 61 13 24 56 52
106 67 56 18 200 17 270 -1z m-235 -204 c0 -24 -13 -33 -34 -25 -19 7 -21 30
-3 37 25 11 37 6 37 -12z m44 3 c17 -44 -15 -84 -68 -84 -36 0 -71 32 -61 56
7 17 8 18 12 2 5 -19 39 -32 70 -26 12 2 19 14 21 36 3 34 16 42 26 16z m2060
0 c28 -11 17 -24 -19 -24 -33 0 -43 8 -28 23 8 9 27 9 47 1z m56 -43 c23 -44
-68 -72 -104 -32 -17 18 -16 20 3 26 12 3 35 4 51 0 23 -5 30 -3 30 9 0 21 7
20 20 -3z m-1790 -196 c35 -11 68 -31 93 -56 34 -34 38 -42 32 -71 -4 -18 -19
-46 -35 -62 l-28 -28 -20 20 c-36 36 -97 47 -257 47 -82 0 -177 -4 -210 -8
l-60 -8 -11 56 c-15 84 -2 95 151 124 75 15 280 6 345 -14z m1634 -15 c90 -13
152 -46 149 -80 -4 -62 -16 -120 -25 -120 -5 0 -24 7 -44 15 -130 54 -360 46
-439 -17 l-28 -22 -23 28 c-44 51 -25 112 52 163 56 36 225 52 358 33z m-1541
-254 c68 -52 198 -67 577 -66 168 0 332 2 365 5 154 13 181 17 207 31 34 18
41 15 62 -30 41 -87 -44 -141 -284 -178 -131 -20 -528 -17 -665 5 -161 26
-281 56 -318 81 -65 44 -73 101 -19 151 33 31 36 31 75 1z"/>
<path d="M2323 2351 c-9 -14 -8 -22 5 -34 9 -9 12 -20 8 -24 -4 -5 -18 5 -31
21 -20 25 -26 28 -40 16 -23 -19 1 -80 27 -64 4 3 28 5 53 6 25 0 48 5 51 10
10 16 -6 58 -23 58 -15 0 -15 -2 1 -19 13 -14 14 -21 5 -27 -17 -10 -40 25
-33 53 7 28 -7 30 -23 4z"/>
<path d="M2460 2360 c0 -5 -6 -10 -14 -10 -16 0 -30 -60 -17 -73 15 -15 41 0
41 25 0 13 3 33 6 46 4 13 2 22 -5 22 -6 0 -11 -4 -11 -10z"/>
<path d="M2554 2349 c-3 -6 0 -15 7 -20 9 -7 0 -8 -26 -4 l-40 6 33 -15 c17
-8 32 -22 32 -31 0 -19 -14 -19 -30 0 -17 21 -40 19 -40 -4 0 -13 10 -20 32
-25 17 -3 35 -3 39 1 12 15 30 83 24 93 -8 13 -22 13 -31 -1z"/>
<path d="M2158 2317 c-33 -9 -37 -14 -33 -36 5 -30 29 -56 44 -47 14 9 15 56
1 56 -5 0 -10 5 -10 10 0 11 43 14 53 3 4 -3 -1 -12 -11 -19 -13 -10 -14 -15
-5 -25 16 -16 43 -4 43 20 0 19 -25 52 -38 50 -4 -1 -24 -6 -44 -12z"/>
<path d="M2597 2303 c-11 -11 -8 -63 4 -63 5 0 7 5 4 11 -4 6 1 16 11 23 9 7
14 18 10 24 -8 13 -19 15 -29 5z"/>
<path d="M585 2362 c-9 -10 -5 -92 5 -92 6 0 10 10 10 23 l0 22 21 -25 21 -25
-6 24 c-3 14 0 31 5 38 6 6 8 16 5 21 -7 11 -53 22 -61 14z"/>
<path d="M497 2353 c-10 -9 -8 -55 2 -71 4 -8 19 -12 32 -10 44 6 34 88 -11
88 -9 0 -20 -3 -23 -7z m38 -41 c0 -31 -19 -28 -23 4 -3 18 0 25 10 22 7 -3
13 -14 13 -26z"/>
<path d="M450 2324 c-1 -24 -2 -26 -11 -11 -14 24 -29 21 -29 -5 -1 -22 -1
-22 -15 -4 -24 32 -27 11 -4 -28 24 -42 44 -47 37 -11 -6 27 9 35 18 10 4 -8
12 -15 19 -15 10 0 11 10 3 42 -11 53 -18 60 -18 22z"/>
<path d="M666 2309 c-8 -48 -1 -63 13 -28 l9 24 11 -27 c15 -39 24 -35 17 7
-5 27 -3 37 8 41 9 3 13 10 10 15 -3 5 -16 2 -30 -7 -22 -15 -24 -15 -18 0 3
9 2 16 -4 16 -5 0 -12 -19 -16 -41z"/>
<path d="M803 2308 c-19 -27 -36 -68 -30 -74 7 -7 47 55 47 74 0 6 -2 12 -4
12 -2 0 -8 -6 -13 -12z"/>
<path d="M840 2285 c-9 -10 -9 -19 0 -35 15 -28 4 -39 -15 -14 -12 16 -14 16
-15 3 0 -9 7 -22 16 -29 12 -11 18 -10 32 4 14 14 15 20 4 37 -8 12 -10 24 -6
27 4 4 9 1 11 -5 5 -15 23 -17 23 -3 0 5 -9 14 -19 19 -14 8 -22 7 -31 -4z"/>
<path d="M580 1880 c0 -30 4 -49 10 -45 5 3 7 12 3 20 -7 19 11 19 27 0 15
-18 34 -20 23 -3 -4 7 -7 26 -8 43 0 25 -4 31 -27 33 -27 3 -28 2 -28 -48z"/>
<path d="M671 1916 c-9 -11 -8 -17 4 -30 9 -9 21 -16 26 -16 6 0 7 -5 4 -10
-4 -6 -16 -8 -28 -4 -21 6 -21 5 -5 -11 9 -10 23 -15 32 -12 23 9 20 42 -6 61
l-23 17 24 -7 c17 -4 22 -2 19 7 -7 20 -33 22 -47 5z"/>
<path d="M454 1905 c-3 -8 -3 -19 1 -25 3 -5 2 -10 -4 -10 -5 0 -13 9 -16 20
-9 29 -25 24 -25 -7 l0 -28 -20 25 c-24 31 -26 13 -3 -35 21 -44 31 -44 35 -2
l4 32 13 -27 c21 -41 31 -34 31 22 0 50 -6 63 -16 35z"/>
<path d="M487 1901 c-8 -31 3 -60 25 -66 28 -10 50 13 46 49 -3 27 -7 31 -34
34 -25 2 -33 -1 -37 -17z m52 -9 c12 -23 -2 -47 -23 -39 -24 10 -20 57 5 57 5
0 13 -8 18 -18z"/>
<path d="M750 1906 c0 -7 -3 -28 -6 -45 -7 -35 10 -44 19 -10 7 25 27 16 27
-12 0 -11 5 -17 10 -14 6 3 10 27 10 52 0 26 -3 43 -7 39 -5 -4 -8 -13 -8 -19
0 -7 -7 -12 -15 -12 -9 0 -14 7 -12 18 2 9 -2 17 -8 17 -5 0 -10 -6 -10 -14z"/>
<path d="M830 1898 c0 -7 -3 -31 -6 -53 -5 -27 -3 -37 3 -30 15 14 26 95 13
95 -5 0 -10 -6 -10 -12z"/>
<path d="M861 1859 c-6 -18 -11 -39 -11 -48 1 -14 2 -14 14 2 7 9 22 17 34 17
24 0 37 27 21 46 -20 24 -46 16 -58 -17z"/>
<path d="M2167 1893 c-12 -11 -8 -21 11 -26 13 -4 11 -5 -6 -6 -18 -1 -22 -6
-18 -26 7 -39 13 -43 61 -43 43 1 60 17 35 33 -5 3 -10 1 -10 -4 0 -6 -4 -11
-10 -11 -5 0 -10 9 -10 20 0 11 -5 20 -11 20 -5 0 -8 4 -5 9 15 23 -18 53 -37
34z"/>
<path d="M2378 1895 c-2 -3 -26 -6 -54 -7 -45 -3 -49 -5 -52 -30 -2 -19 3 -30
19 -38 31 -17 69 2 69 35 0 29 30 35 51 9 11 -14 10 -15 -6 -12 -12 2 -21 -4
-23 -14 -2 -13 3 -18 17 -18 27 0 44 32 28 52 -13 16 -42 29 -49 23z m-39 -51
c-15 -18 -34 -18 -49 1 -10 13 -9 15 9 15 11 0 21 5 21 11 0 8 5 8 15 -1 12
-10 13 -16 4 -26z"/>
<path d="M2530 1890 c0 -5 -13 -7 -30 -3 -29 5 -44 -11 -17 -20 8 -3 3 -11
-13 -25 -14 -11 -22 -24 -18 -28 4 -4 14 -1 23 6 12 10 16 9 21 -4 3 -9 12
-16 19 -16 17 0 28 31 15 44 -7 7 -10 4 -10 -8 0 -15 -3 -16 -15 -6 -19 16 -3
40 26 40 11 0 19 7 19 15 0 8 -4 15 -10 15 -5 0 -10 -4 -10 -10z"/>
<path d="M910 1620 c0 -5 14 -10 30 -10 30 0 41 -14 18 -23 -10 -4 -10 -6 -1
-6 7 -1 10 -7 7 -15 -3 -8 -1 -17 5 -21 6 -3 11 2 11 12 0 34 13 42 50 33 l35
-8 -32 -1 c-26 -1 -33 -5 -33 -20 0 -11 5 -23 12 -27 8 -5 9 -2 5 9 -10 26 13
31 34 8 11 -12 27 -21 37 -21 14 0 14 -2 3 -9 -9 -6 -11 -15 -6 -27 8 -18 8
-18 12 -1 5 18 6 18 24 1 10 -9 19 -12 19 -6 0 6 -4 14 -10 17 -12 8 -13 52
-2 59 13 8 82 -5 82 -16 0 -5 -9 -6 -20 -3 -12 4 -20 2 -20 -5 0 -7 -8 -9 -22
-5 -22 7 -22 6 -5 -11 14 -16 21 -17 37 -6 26 16 33 15 27 -3 -4 -8 -2 -17 3
-20 4 -3 11 8 15 25 4 16 11 30 17 30 5 0 7 -12 3 -30 -4 -19 -3 -30 4 -30 6
0 11 6 11 14 0 8 7 21 15 30 19 19 17 20 -90 40 -49 9 -130 26 -178 36 -104
23 -97 23 -97 10z m194 -48 c2 -4 1 -14 -4 -22 -7 -11 -12 -12 -21 -3 -6 6 -8
16 -5 22 8 13 23 14 30 3z"/>
<path d="M905 1590 c-7 -11 12 -40 25 -40 4 0 7 11 6 25 -1 25 -19 34 -31 15z"/>
<path d="M1955 1579 c-109 -22 -154 -23 -179 -4 -28 21 -53 19 -66 -6 -10 -18
-20 -20 -88 -19 -147 3 -297 -2 -267 -9 31 -6 49 -41 21 -41 -10 0 -13 6 -9
16 4 12 2 15 -8 12 -26 -9 -21 -35 8 -41 35 -7 43 -2 43 29 0 21 4 24 40 24
22 0 40 -4 40 -10 0 -5 -4 -10 -10 -10 -5 0 -10 -7 -10 -15 0 -17 25 -20 35
-5 9 15 25 12 25 -5 0 -8 5 -15 10 -15 6 0 10 11 10 25 0 20 5 25 24 25 13 0
32 3 41 6 13 5 16 2 13 -15 -1 -12 -7 -21 -13 -20 -5 0 -9 5 -7 10 1 5 -7 9
-18 9 -17 0 -19 -3 -10 -19 7 -13 20 -19 40 -19 26 1 30 5 30 30 0 15 5 28 10
28 6 0 10 -13 10 -30 0 -16 5 -30 10 -30 6 0 10 14 10 30 0 17 5 30 10 30 6 0
10 -13 10 -30 0 -16 5 -30 10 -30 6 0 10 14 10 30 0 23 4 30 20 30 11 0 20 -4
20 -10 0 -5 -7 -10 -16 -10 -14 0 -14 -3 -4 -15 16 -19 41 -20 34 -1 -5 14 20
46 36 46 5 0 12 -4 15 -10 3 -5 -3 -10 -15 -10 -33 0 -21 -34 13 -38 23 -3 27
0 27 22 0 29 3 32 54 41 28 6 37 5 32 -4 -4 -6 -18 -11 -32 -11 -20 0 -25 -4
-22 -22 2 -12 9 -23 17 -26 10 -3 11 2 6 18 -6 19 -4 22 9 17 9 -4 16 -2 16 3
0 6 5 10 10 10 6 0 10 -7 10 -15 0 -8 4 -15 10 -15 5 0 7 13 4 29 -4 21 -2 30
11 35 26 10 32 -2 9 -18 -19 -14 -19 -15 0 -22 13 -5 23 -1 32 11 14 18 14 18
29 -1 13 -18 14 -16 13 19 -1 20 -6 37 -12 36 -6 0 -51 -9 -101 -20z"/>
<path d="M780 1430 c-57 -14 -84 -17 -110 -10 -68 19 -129 5 -102 -22 20 -20
14 -26 -28 -33 -22 -4 -40 -11 -40 -15 0 -12 60 -28 129 -37 35 -4 76 -18 110
-39 31 -18 93 -45 139 -60 60 -20 81 -32 80 -43 -2 -12 7 -17 39 -19 61 -4
133 38 133 78 0 27 -2 28 -45 28 -34 0 -45 -3 -45 -15 0 -22 -26 -13 -121 43
-76 45 -80 49 -58 58 93 37 159 79 146 93 -17 16 -152 13 -227 -7z m200 -6 c0
-8 -146 -74 -164 -74 -25 0 -19 -13 14 -32 17 -9 30 -25 30 -35 0 -12 3 -14
11 -6 14 14 39 6 39 -14 0 -8 5 -11 10 -8 6 3 10 2 10 -2 0 -5 16 -15 35 -22
34 -12 48 -31 22 -31 -21 0 -148 45 -196 69 -61 31 -201 124 -201 133 0 5 16
8 35 8 24 0 35 -5 35 -14 0 -22 19 -29 36 -15 34 28 284 67 284 43z m-354 -79
c16 -12 16 -14 3 -15 -33 0 -79 13 -73 21 8 14 48 11 70 -6z m484 -113 c0 -8
-58 -32 -78 -32 -22 0 -12 18 16 28 34 13 62 15 62 4z"/>
<path d="M1636 1268 c-13 -14 -15 -23 -8 -26 7 -2 12 -12 12 -22 0 -10 5 -22
10 -25 6 -4 10 13 10 44 0 28 -1 51 -3 51 -1 0 -11 -10 -21 -22z"/>
<path d="M1463 1220 c-13 -6 -23 -18 -23 -30 0 -11 -4 -20 -10 -20 -5 0 -10 7
-10 16 0 13 -6 15 -27 9 -30 -7 -43 -21 -43 -46 0 -10 -12 -19 -30 -22 -17 -4
-30 -13 -30 -21 0 -9 -9 -20 -20 -26 -11 -6 -20 -20 -20 -30 0 -28 -28 -25
-33 3 -4 18 -5 17 -6 -6 -1 -20 -7 -31 -22 -34 -16 -5 -19 -11 -14 -30 4 -16
2 -22 -5 -18 -5 3 -10 2 -10 -4 0 -5 30 -9 72 -8 39 1 64 3 54 5 -9 2 -14 7
-12 11 3 4 53 6 111 5 58 -2 103 1 101 5 -8 13 47 21 148 21 93 0 136 6 136
20 0 4 -14 10 -30 12 -23 3 -30 1 -26 -9 3 -8 -2 -13 -15 -13 -16 0 -18 4 -13
28 4 15 15 45 25 67 26 56 24 65 -13 65 -18 0 -45 7 -60 14 -16 8 -28 11 -28
5 0 -5 -21 -8 -47 -7 -41 1 -43 2 -13 5 19 3 40 9 45 14 7 7 -5 8 -32 3 -34
-5 -44 -3 -49 10 -7 18 -18 19 -51 6z m47 -40 c0 -5 -5 -10 -11 -10 -6 0 -25
-6 -42 -14 -39 -17 -60 -24 -68 -22 -3 0 -12 -4 -20 -10 -8 -6 -27 -14 -44
-17 -36 -7 -35 -7 80 42 102 44 105 45 105 31z m75 -20 c3 -5 -2 -11 -12 -11
-10 -1 -28 -3 -40 -4 -27 -3 -31 11 -5 18 31 8 51 7 57 -3z m125 -12 c0 -28
-18 -37 -105 -53 -103 -19 -242 -55 -345 -90 -99 -34 -83 -10 20 32 135 54
306 104 423 122 4 0 7 -5 7 -11z m-212 -10 c-3 -7 -10 -14 -16 -14 -7 -1 -14
-3 -17 -4 -3 -1 -9 -4 -15 -5 -5 -1 -12 -4 -15 -5 -3 -1 -9 -4 -15 -5 -5 -1
-11 -3 -12 -4 -2 -2 -14 -4 -27 -7 -13 -2 -44 -13 -69 -24 -25 -11 -47 -18
-50 -15 -3 3 15 13 39 24 160 70 205 84 197 59z"/>
<path d="M2917 2584 c-4 -4 -7 -18 -7 -31 0 -21 -4 -23 -51 -23 -36 0 -49 -4
-47 -12 3 -9 25 -13 64 -13 l59 0 3 34 c3 33 -8 58 -21 45z"/>
<path d="M77 2564 c-14 -14 5 -22 38 -17 46 7 46 -12 0 -34 -55 -26 -45 -43
25 -43 68 0 82 17 18 22 l-43 3 43 23 c45 24 52 36 26 46 -21 8 -99 8 -107 0z"/>
<path d="M2868 2453 c-76 -20 -78 -42 -6 -69 29 -10 56 -20 60 -22 4 -2 8 3 8
11 0 8 -6 17 -14 20 -17 7 -10 43 10 51 14 6 20 27 7 25 -5 -1 -34 -8 -65 -16z"/>
<path d="M83 2422 c19 -20 23 -62 7 -62 -5 0 -10 -6 -10 -14 0 -10 13 -8 60 8
73 25 74 42 5 67 -68 24 -83 24 -62 1z"/>
<path d="M180 2320 c0 -17 -7 -20 -50 -20 -38 0 -50 -4 -50 -15 0 -13 9 -15
49 -9 45 6 50 4 56 -16 11 -34 23 -10 17 38 -4 42 -22 60 -22 22z"/>
<path d="M2800 2328 c0 -8 9 -23 20 -33 25 -22 26 -36 3 -32 -10 1 -20 -2 -23
-8 -3 -6 20 -11 58 -13 38 -2 62 1 62 8 0 5 -11 10 -25 10 -14 0 -25 5 -25 10
0 6 11 16 25 22 14 6 25 17 25 25 0 17 -6 17 -41 -4 -28 -16 -29 -16 -54 7
-19 17 -25 20 -25 8z"/>
<path d="M98 2213 c-10 -2 -18 -9 -18 -15 0 -7 16 -8 46 -4 26 3 55 6 65 6 11
0 19 5 19 10 0 10 -78 12 -112 3z"/>
<path d="M2790 2195 c0 -8 8 -15 18 -15 25 0 31 -7 25 -31 -4 -13 -13 -19 -26
-17 -11 2 -22 -2 -24 -8 -2 -7 18 -13 54 -17 64 -7 98 8 44 19 -25 5 -31 11
-29 28 2 16 9 20 30 18 28 -3 49 15 26 22 -7 2 -37 7 -65 10 -42 4 -53 2 -53
-9z"/>
<path d="M112 2154 c-46 -32 -18 -94 42 -94 58 0 85 51 46 90 -24 24 -57 26
-88 4z m83 -32 c7 -18 -19 -42 -46 -42 -22 0 -41 24 -33 43 11 29 68 28 79 -1z"/>
<path d="M2778 2084 c-11 -11 -10 -94 1 -94 5 0 11 8 13 17 2 14 13 17 56 14
69 -3 67 15 -2 23 -45 6 -55 11 -58 28 -2 11 -6 16 -10 12z"/>
<path d="M100 2021 c0 -6 19 -11 42 -13 l42 -3 -43 -28 c-24 -16 -39 -33 -35
-37 11 -11 124 -1 124 11 0 4 -19 9 -42 11 l-43 3 38 22 c20 12 37 27 37 33 0
6 -25 10 -60 10 -33 0 -60 -4 -60 -9z"/>
<path d="M2803 1957 c-25 -5 -43 -16 -43 -24 0 -16 106 -70 117 -59 4 4 0 14
-10 21 -21 15 -15 55 9 55 8 0 14 5 14 10 0 12 -30 11 -87 -3z"/>
<path d="M110 1886 c0 -9 6 -16 14 -16 20 0 25 -32 9 -52 -8 -9 -11 -18 -6
-21 12 -7 113 55 113 70 0 7 -21 15 -47 18 -27 4 -56 9 -65 12 -12 3 -18 -1
-18 -11z"/>
<path d="M2752 1838 c-7 -7 -12 -26 -12 -44 0 -28 4 -33 30 -38 17 -3 44 -9
60 -12 23 -4 30 -2 30 10 0 10 -9 16 -25 16 -15 0 -25 6 -25 14 0 19 20 31 43
28 10 -2 17 3 17 14 0 13 -7 16 -35 11 -19 -3 -37 -1 -40 4 -8 13 -29 11 -43
-3z m41 -44 c-8 -20 -33 -17 -33 4 0 10 3 22 7 25 10 11 32 -13 26 -29z"/>
<path d="M185 1776 c-47 -12 -50 -14 -47 -42 4 -41 10 -56 22 -49 5 3 7 18 4
34 -5 26 -3 28 43 37 26 5 47 13 46 19 -2 14 -12 14 -68 1z"/>
<path d="M2725 1720 c-7 -12 2 -16 53 -25 33 -5 42 -11 42 -27 0 -19 -4 -20
-56 -15 -70 7 -70 -14 0 -26 57 -9 76 2 76 44 0 21 -6 32 -22 38 -41 15 -87
20 -93 11z"/>
<path d="M223 1622 c-29 -8 -53 -20 -53 -27 0 -9 14 -9 58 3 66 18 69 20 56
30 -5 5 -33 2 -61 -6z"/>
<path d="M2693 1574 c-20 -30 -9 -57 25 -62 15 -2 25 4 34 22 11 26 32 34 43
17 3 -6 -4 -19 -17 -30 -12 -12 -19 -24 -15 -27 12 -12 37 5 47 32 8 21 7 31
-6 45 -24 27 -40 24 -61 -11 -9 -16 -21 -30 -25 -30 -16 0 -19 23 -4 39 18 20
20 31 6 31 -5 0 -17 -12 -27 -26z"/>
<path d="M223 1567 c-24 -5 -43 -14 -43 -18 0 -12 23 -11 54 1 34 13 33 3 -5
-36 -17 -18 -29 -37 -25 -42 7 -11 116 17 116 30 0 11 -23 10 -54 -2 -35 -13
-33 4 4 30 33 24 40 51 13 49 -10 -1 -37 -6 -60 -12z"/>
<path d="M287 1453 c-4 -3 -7 -24 -7 -45 0 -26 -4 -38 -14 -38 -18 0 -26 22
-19 52 5 22 5 22 -13 5 -17 -16 -18 -20 -4 -45 11 -18 24 -27 40 -27 22 0 25
5 28 43 4 47 27 55 27 9 -1 -16 5 -27 12 -27 16 0 17 52 1 68 -13 13 -41 16
-51 5z"/>
<path d="M360 1365 c-1 -5 -2 -17 -1 -25 1 -10 -14 -22 -41 -31 -23 -9 -44
-21 -46 -29 -5 -14 8 -12 66 12 28 11 34 11 42 -2 19 -31 20 1 2 42 -11 23
-21 39 -22 33z"/>
<path d="M2700 1321 c0 -6 4 -12 9 -15 13 -8 42 4 35 15 -7 12 -44 12 -44 0z"/>
<path d="M2580 1267 c0 -16 91 -87 103 -80 5 3 4 10 -2 16 -19 19 -12 47 14
57 40 15 30 20 -45 20 -50 0 -70 -4 -70 -13z"/>
<path d="M353 1234 c-48 -21 -69 -44 -43 -44 22 0 110 51 105 60 -3 6 -7 10
-8 9 -1 0 -26 -11 -54 -25z"/>
<path d="M419 1213 c-1 -5 -1 -15 0 -23 1 -9 -17 -23 -45 -34 -32 -13 -42 -22
-35 -29 8 -8 23 -5 54 10 40 19 44 20 54 4 21 -32 24 -2 3 38 -20 40 -29 49
-31 34z"/>
<path d="M2553 1178 c2 -13 8 -31 12 -41 6 -15 4 -17 -19 -11 -45 11 -29 -14
24 -37 27 -11 53 -21 57 -21 14 1 15 22 0 22 -8 0 -20 6 -26 14 -9 11 -5 15
23 20 56 11 58 30 3 23 -43 -6 -46 -5 -56 23 -12 35 -26 40 -18 8z"/>
<path d="M423 1084 c-48 -28 -54 -53 -23 -84 15 -15 25 -18 42 -11 54 22 78
37 78 49 0 16 -2 16 -55 -10 -39 -19 -47 -20 -55 -8 -12 19 -5 27 41 50 38 20
52 40 27 40 -7 0 -32 -12 -55 -26z"/>
<path d="M2480 1037 c0 -16 72 -87 88 -87 15 0 15 13 0 28 -13 13 6 42 28 42
27 0 14 18 -17 24 -53 10 -99 7 -99 -7z"/>
<path d="M520 1002 c0 -4 5 -13 10 -18 8 -8 -2 -19 -30 -38 -22 -14 -40 -31
-40 -36 0 -16 12 -12 53 16 31 21 41 23 53 13 25 -20 26 -3 2 34 -21 33 -48
49 -48 29z"/>
<path d="M2431 954 c-23 -38 -21 -55 3 -35 11 9 21 8 48 -9 34 -20 58 -26 58
-12 0 4 -18 17 -41 30 -31 18 -39 27 -34 43 10 32 -12 21 -34 -17z"/>
<path d="M548 879 l-47 -31 22 -34 c12 -18 28 -34 35 -34 17 0 15 11 -8 35
-18 19 -19 24 -6 34 12 10 18 8 31 -13 10 -14 21 -23 27 -20 5 3 3 16 -6 30
-20 29 -20 34 -2 34 7 0 20 -10 29 -22 8 -13 18 -20 22 -16 7 7 -31 68 -43 68
-4 0 -28 -14 -54 -31z"/>
<path d="M2381 867 c-6 -6 4 -27 27 -58 39 -53 58 -63 48 -25 -6 25 12 49 34
44 7 -2 14 2 16 7 6 14 -113 44 -125 32z"/>
<path d="M2327 793 c-4 -3 8 -19 25 -35 l33 -29 -27 5 c-16 3 -39 9 -53 12
-18 5 -25 2 -25 -9 0 -20 83 -92 89 -76 2 6 -9 22 -25 35 -32 25 -21 30 33 15
49 -14 51 5 7 50 -39 40 -46 44 -57 32z"/>
<path d="M650 738 c-11 -12 -20 -30 -20 -40 0 -19 33 -58 50 -58 22 0 59 24
70 46 11 19 10 27 -4 49 -21 32 -67 34 -96 3z m78 -25 c4 -29 -34 -56 -60 -42
-23 13 -23 24 3 50 25 25 53 21 57 -8z"/>
<path d="M2215 670 c-17 -17 -25 -33 -19 -38 5 -4 26 -22 46 -41 39 -36 65
-36 33 -1 -17 19 -18 22 -2 37 15 16 18 15 35 0 10 -9 22 -14 25 -10 7 7 -68
83 -82 83 -4 0 -20 -14 -36 -30z m55 -7 c-1 -20 -19 -35 -35 -29 -14 5 -15 9
-5 21 13 16 40 21 40 8z"/>
<path d="M753 640 c-24 -21 -43 -43 -43 -49 0 -16 10 -14 32 6 17 15 19 15 38
-2 26 -23 39 -11 16 14 -27 30 -9 47 20 20 35 -33 43 -13 8 21 l-29 29 -42
-39z"/>
<path d="M2135 589 c-9 -13 34 -119 47 -119 6 0 8 9 5 20 -6 25 16 44 43 35
40 -13 20 20 -30 48 -57 31 -57 31 -65 16z"/>
<path d="M920 542 c0 -4 5 -13 11 -19 7 -7 2 -21 -20 -46 -17 -19 -31 -37 -31
-41 0 -13 30 -5 39 12 27 45 40 55 55 43 8 -7 17 -8 20 -3 3 6 -10 22 -28 36
-36 27 -46 31 -46 18z"/>
<path d="M2060 498 c0 -41 0 -41 -20 -23 -37 33 -33 7 6 -39 40 -48 54 -56 54
-31 0 8 -4 15 -9 15 -5 0 -12 7 -15 16 -5 14 -1 15 29 10 52 -10 68 6 20 20
-35 9 -40 15 -43 42 -5 47 -22 39 -22 -10z"/>
<path d="M981 434 l-34 -45 28 -29 c16 -17 32 -30 37 -30 16 0 8 22 -14 40
-18 15 -20 21 -11 31 10 10 17 9 33 -6 11 -10 23 -15 28 -11 4 4 -4 17 -17 27
-18 15 -21 23 -13 31 9 9 18 6 37 -12 18 -17 25 -19 25 -9 0 12 -51 60 -62 59
-2 0 -18 -21 -37 -46z"/>
<path d="M1915 421 c-3 -6 -3 -22 1 -36 7 -29 2 -31 -30 -9 -16 9 -26 11 -30
5 -4 -6 12 -20 34 -31 23 -12 43 -27 47 -35 3 -8 12 -15 20 -15 13 0 13 3 -1
25 -9 13 -16 40 -16 59 0 35 -13 55 -25 37z"/>
<path d="M1071 359 c-20 -33 -18 -56 7 -76 21 -17 65 -17 60 -1 -3 7 -15 13
-29 13 -30 0 -37 29 -13 56 24 26 43 24 54 -7 6 -14 14 -22 20 -19 29 18 -10
65 -53 65 -20 0 -33 -9 -46 -31z"/>
<path d="M1778 329 c-41 -23 -5 -109 45 -109 23 1 67 32 67 47 -1 19 -28 43
-44 37 -21 -8 -21 -24 0 -24 23 0 13 -34 -12 -38 -25 -4 -57 30 -52 55 2 11
14 19 31 21 15 2 27 8 27 13 0 12 -40 11 -62 -2z"/>
<path d="M1180 288 c-16 -22 -30 -45 -30 -50 0 -15 18 -8 33 15 14 20 16 21
32 6 13 -13 15 -21 6 -37 -13 -25 -14 -32 -3 -32 9 0 72 83 72 94 0 12 -23 6
-34 -9 -10 -14 -14 -14 -31 -1 -16 12 -18 17 -7 27 15 16 16 29 2 29 -5 0 -23
-19 -40 -42z"/>
<path d="M1657 262 c-35 -38 -6 -112 43 -112 25 0 60 34 60 59 0 24 -44 71
-68 71 -10 0 -26 -8 -35 -18z m77 -66 c-10 -26 -38 -28 -56 -6 -23 28 -23 46
0 59 13 8 22 5 39 -14 12 -14 20 -32 17 -39z"/>
<path d="M1286 213 c-17 -30 -23 -50 -17 -56 6 -6 16 4 27 29 l18 39 5 -49 c3
-27 11 -51 16 -53 12 -3 68 98 59 106 -4 3 -11 -2 -18 -12 -33 -54 -35 -54
-36 -4 0 62 -20 62 -54 0z"/>
<path d="M1538 204 c-10 -9 29 -99 44 -102 22 -4 70 17 63 28 -4 7 -13 7 -26
0 -26 -14 -33 -9 -49 39 -13 39 -20 47 -32 35z"/>
<path d="M1422 188 c-17 -17 -15 -83 2 -97 24 -20 69 -9 86 22 13 24 13 30 0
55 -17 30 -66 42 -88 20z m63 -48 c0 -29 -4 -36 -23 -38 -26 -4 -37 17 -28 54
5 19 12 25 29 22 18 -2 22 -9 22 -38z"/>
<path d="M963 820 c-20 -8 -22 -16 -21 -82 1 -90 4 -98 34 -98 24 0 24 1 24
95 0 52 -3 95 -7 94 -5 0 -18 -4 -30 -9z m17 -96 c0 -47 -4 -73 -10 -69 -18
11 -12 145 7 145 2 0 3 -34 3 -76z"/>
<path d="M1030 731 l0 -91 30 0 31 0 -3 88 c-3 87 -3 87 -30 90 l-28 3 0 -90z
m40 -12 c0 -52 -3 -70 -12 -67 -14 5 -24 109 -14 135 13 32 26 -3 26 -68z"/>
<path d="M1394 797 c-3 -8 -4 -47 -2 -88 3 -68 5 -74 26 -77 21 -3 22 -1 22
87 0 85 -1 91 -20 91 -11 0 -23 -6 -26 -13z m36 -82 c0 -51 -3 -65 -15 -65
-12 0 -15 14 -15 65 0 51 3 65 15 65 12 0 15 -14 15 -65z"/>
<path d="M1470 720 c0 -89 0 -90 25 -90 25 0 25 1 25 90 0 89 0 90 -25 90 -25
0 -25 -1 -25 -90z m40 -6 c0 -85 -22 -83 -25 2 -2 63 1 78 16 69 5 -4 9 -36 9
-71z"/>
<path d="M1847 793 c-8 -7 -9 -157 -2 -165 3 -3 17 -3 30 0 24 4 25 7 25 88 0
81 -1 84 -23 84 -13 0 -27 -3 -30 -7z m33 -89 c0 -48 -3 -65 -12 -62 -13 5
-23 89 -14 114 13 35 26 9 26 -52z"/>
<path d="M1930 709 c0 -88 1 -90 23 -87 21 3 22 8 25 91 l3 87 -26 0 c-25 0
-25 0 -25 -91z m37 -1 c-1 -39 -7 -63 -14 -66 -10 -3 -13 14 -13 62 0 51 3 66
14 66 12 0 14 -14 13 -62z"/>
<path d="M1110 715 c0 -73 1 -75 25 -75 24 0 25 3 25 59 0 41 -5 65 -16 75
-28 28 -34 17 -34 -59z m30 -11 c0 -24 -4 -44 -10 -44 -5 0 -10 23 -10 51 0
31 4 48 10 44 6 -3 10 -26 10 -51z"/>
<path d="M1550 710 c0 -79 0 -80 25 -80 24 0 25 2 25 63 0 49 -4 68 -18 80
-10 10 -22 17 -25 17 -4 0 -7 -36 -7 -80z m30 -16 c0 -34 -4 -53 -10 -49 -5 3
-10 28 -10 56 0 27 5 49 10 49 6 0 10 -25 10 -56z"/>
<path d="M1326 764 c-13 -12 -15 -28 -10 -72 8 -66 8 -66 29 -59 11 5 15 23
15 77 0 72 -7 82 -34 54z m24 -64 c0 -27 -4 -50 -10 -50 -5 0 -10 23 -10 50 0
28 5 50 10 50 6 0 10 -22 10 -50z"/>
<path d="M1782 764 c-18 -13 -22 -25 -22 -75 0 -56 1 -59 24 -59 13 0 26 6 29
13 5 14 1 127 -5 133 -2 2 -14 -3 -26 -12z m12 -66 c-3 -55 -4 -59 -14 -53
-11 7 -14 78 -4 88 12 12 19 -1 18 -35z"/>
<path d="M2012 698 c3 -65 5 -73 23 -73 17 0 20 8 23 58 3 60 -8 87 -35 87
-11 0 -13 -15 -11 -72z m28 -8 c0 -27 -4 -50 -10 -50 -5 0 -10 23 -10 50 0 28
5 50 10 50 6 0 10 -22 10 -50z"/>
<path d="M1270 701 c-13 -25 -13 -61 0 -61 21 0 25 6 25 42 0 42 -9 48 -25 19z"/>
<path d="M1710 681 c-16 -30 -12 -53 8 -49 11 2 18 14 20 36 4 35 -12 43 -28
13z"/>
<path d="M1085 530 c-4 -6 -3 -9 2 -8 4 1 18 -3 31 -11 13 -7 28 -10 35 -8 7
2 -2 11 -20 20 -38 20 -40 20 -48 7z"/>
<path d="M1407 529 c4 -4 24 -10 43 -12 19 -3 -4 -3 -53 -1 -52 1 -85 -1 -82
-7 9 -13 162 -11 210 2 22 7 36 13 30 15 -27 7 -155 10 -148 3z"/>
<path d="M1770 521 c-24 -7 -23 -8 13 -20 29 -10 42 -10 50 -2 8 8 3 11 -18
13 -17 1 -1 4 35 8 l65 7 -60 0 c-33 1 -71 -2 -85 -6z"/>
<path d="M1325 475 c52 -16 127 -26 142 -20 13 6 6 10 -32 16 -49 7 -130 10
-110 4z"/>
<path d="M1490 449 c0 -9 -21 -10 -72 -6 -47 4 -68 3 -61 -4 12 -12 161 -25
150 -13 -4 4 5 13 20 20 l28 12 -32 1 c-19 1 -33 -4 -33 -10z"/>
<path d="M1605 440 c-3 -5 -19 -10 -36 -10 -16 0 -29 -5 -29 -11 0 -16 60 -3
80 16 9 10 10 15 3 15 -7 0 -15 -4 -18 -10z"/>
<path d="M1645 420 c3 -5 17 -10 31 -10 13 0 24 5 24 10 0 6 -14 10 -31 10
-17 0 -28 -4 -24 -10z"/>
<path d="M1266 411 c13 -15 109 -22 137 -11 17 7 7 9 -38 10 -33 0 -71 3 -85
6 -18 5 -22 4 -14 -5z"/>
<path d="M1490 401 c0 -11 62 -21 125 -20 l50 1 -40 8 c-79 15 -135 19 -135
11z"/>
<path d="M1434 382 c4 -6 23 -14 44 -17 20 -3 47 -8 60 -11 12 -2 22 0 22 5 0
4 -15 11 -32 14 -18 3 -48 9 -67 13 -24 5 -32 4 -27 -4z"/>
</g>
</svg>
